<svg xmlns="http://www.w3.org/2000/svg" xmlns:xlink="http://www.w3.org/1999/xlink" width="350" zoomAndPan="magnify" viewBox="0 0 1500 299.999988" height="70" preserveAspectRatio="xMidYMid meet" version="1.0"><defs><g/><clipPath id="cecc2ff614"><path d="M 306.40625 266.980469 L 1495.71875 266.980469 L 1495.71875 298.53125 L 306.40625 298.53125 Z M 306.40625 266.980469 " clip-rule="nonzero"/></clipPath><clipPath id="8ba8711fdf"><path d="M 119.324219 209.457031 L 273.664062 209.457031 L 273.664062 240.617188 L 119.324219 240.617188 Z M 119.324219 209.457031 " clip-rule="nonzero"/></clipPath><clipPath id="1b6a7dd615"><path d="M 134.90625 209.457031 L 258.023438 209.457031 C 266.628906 209.457031 273.605469 216.433594 273.605469 225.039062 C 273.605469 233.640625 266.628906 240.617188 258.023438 240.617188 L 134.90625 240.617188 C 126.300781 240.617188 119.324219 233.640625 119.324219 225.039062 C 119.324219 216.433594 126.300781 209.457031 134.90625 209.457031 Z M 134.90625 209.457031 " clip-rule="nonzero"/></clipPath><clipPath id="72fbfc00c7"><path d="M 69.328125 209.457031 L 100.488281 209.457031 L 100.488281 240.617188 L 69.328125 240.617188 Z M 69.328125 209.457031 " clip-rule="nonzero"/></clipPath><clipPath id="284255367b"><path d="M 84.910156 209.457031 C 76.304688 209.457031 69.328125 216.433594 69.328125 225.039062 C 69.328125 233.640625 76.304688 240.617188 84.910156 240.617188 C 93.511719 240.617188 100.488281 233.640625 100.488281 225.039062 C 100.488281 216.433594 93.511719 209.457031 84.910156 209.457031 Z M 84.910156 209.457031 " clip-rule="nonzero"/></clipPath><clipPath id="94a6b9e7b3"><path d="M 84.910156 147.136719 L 273.695312 147.136719 L 273.695312 178.296875 L 84.910156 178.296875 Z M 84.910156 147.136719 " clip-rule="nonzero"/></clipPath><clipPath id="2f2c902ca2"><path d="M 100.488281 147.136719 L 258.023438 147.136719 C 266.628906 147.136719 273.605469 154.113281 273.605469 162.71875 C 273.605469 171.320312 266.628906 178.296875 258.023438 178.296875 L 100.488281 178.296875 C 91.882812 178.296875 84.910156 171.320312 84.910156 162.71875 C 84.910156 154.113281 91.882812 147.136719 100.488281 147.136719 Z M 100.488281 147.136719 " clip-rule="nonzero"/></clipPath><clipPath id="5c4a07560a"><path d="M 34.679688 147.136719 L 65.839844 147.136719 L 65.839844 178.296875 L 34.679688 178.296875 Z M 34.679688 147.136719 " clip-rule="nonzero"/></clipPath><clipPath id="146cee9242"><path d="M 50.261719 147.136719 C 41.65625 147.136719 34.679688 154.113281 34.679688 162.71875 C 34.679688 171.320312 41.65625 178.296875 50.261719 178.296875 C 58.867188 178.296875 65.839844 171.320312 65.839844 162.71875 C 65.839844 154.113281 58.867188 147.136719 50.261719 147.136719 Z M 50.261719 147.136719 " clip-rule="nonzero"/></clipPath><clipPath id="daa9d8b306"><path d="M 50.261719 84.910156 L 273.617188 84.910156 L 273.617188 116.070312 L 50.261719 116.070312 Z M 50.261719 84.910156 " clip-rule="nonzero"/></clipPath><clipPath id="1b0fff0307"><path d="M 65.839844 84.910156 L 258.023438 84.910156 C 262.15625 84.910156 266.121094 86.550781 269.042969 89.472656 C 271.964844 92.394531 273.605469 96.355469 273.605469 100.488281 C 273.605469 104.621094 271.964844 108.582031 269.042969 111.503906 C 266.121094 114.425781 262.15625 116.070312 258.023438 116.070312 L 65.839844 116.070312 C 61.707031 116.070312 57.746094 114.425781 54.824219 111.503906 C 51.902344 108.582031 50.261719 104.621094 50.261719 100.488281 C 50.261719 96.355469 51.902344 92.394531 54.824219 89.472656 C 57.746094 86.550781 61.707031 84.910156 65.839844 84.910156 Z M 65.839844 84.910156 " clip-rule="nonzero"/></clipPath><clipPath id="70c193cf3a"><path d="M 0 84.910156 L 31.160156 84.910156 L 31.160156 116.070312 L 0 116.070312 Z M 0 84.910156 " clip-rule="nonzero"/></clipPath><clipPath id="1b438c0c64"><path d="M 15.582031 84.910156 C 6.976562 84.910156 0 91.882812 0 100.488281 C 0 109.09375 6.976562 116.070312 15.582031 116.070312 C 24.183594 116.070312 31.160156 109.09375 31.160156 100.488281 C 31.160156 91.882812 24.183594 84.910156 15.582031 84.910156 Z M 15.582031 84.910156 " clip-rule="nonzero"/></clipPath></defs><g fill="#2b2d42" fill-opacity="1"><g transform="translate(306.405063, 266.426256)"><g><path d="M 145.859375 -181.953125 L 145.859375 -151.71875 L 93.34375 -151.71875 L 93.34375 0 L 57.5 0 L 57.5 -151.71875 L 4.984375 -151.71875 L 4.984375 -181.953125 Z M 145.859375 -181.953125 "/></g></g></g><g fill="#2b2d42" fill-opacity="1"><g transform="translate(451.64515, 266.426256)"><g><path d="M 53.515625 2.609375 C 44.722656 2.609375 37.085938 0.992188 30.609375 -2.234375 C 24.140625 -5.472656 19.160156 -10.222656 15.671875 -16.484375 C 12.191406 -22.753906 10.453125 -30.285156 10.453125 -39.078125 C 10.453125 -47.210938 12.191406 -54.035156 15.671875 -59.546875 C 19.160156 -65.066406 24.554688 -69.585938 31.859375 -73.109375 C 39.160156 -76.640625 48.703125 -79.359375 60.484375 -81.265625 C 68.703125 -82.597656 74.945312 -84.050781 79.21875 -85.625 C 83.488281 -87.195312 86.367188 -88.976562 87.859375 -90.96875 C 89.359375 -92.96875 90.109375 -95.503906 90.109375 -98.578125 C 90.109375 -102.972656 88.570312 -106.332031 85.5 -108.65625 C 82.425781 -110.976562 77.320312 -112.140625 70.1875 -112.140625 C 62.5625 -112.140625 55.300781 -110.4375 48.40625 -107.03125 C 41.519531 -103.632812 35.550781 -99.15625 30.5 -93.59375 L 28 -93.59375 L 13.5625 -115.375 C 20.53125 -123.09375 29.035156 -129.109375 39.078125 -133.421875 C 49.117188 -137.734375 60.070312 -139.890625 71.9375 -139.890625 C 90.101562 -139.890625 103.253906 -136.03125 111.390625 -128.3125 C 119.523438 -120.59375 123.59375 -109.640625 123.59375 -95.453125 L 123.59375 -35.84375 C 123.59375 -29.707031 126.285156 -26.640625 131.671875 -26.640625 C 133.742188 -26.640625 135.78125 -27.007812 137.78125 -27.75 L 139.515625 -27.25 L 142 -3.234375 C 140.09375 -1.992188 137.4375 -0.976562 134.03125 -0.1875 C 130.632812 0.601562 126.90625 1 122.84375 1 C 114.625 1 108.210938 -0.578125 103.609375 -3.734375 C 99.003906 -6.890625 95.707031 -11.828125 93.71875 -18.546875 L 91.109375 -18.796875 C 84.378906 -4.523438 71.847656 2.609375 53.515625 2.609375 Z M 64.46875 -23.15625 C 72.4375 -23.15625 78.804688 -25.828125 83.578125 -31.171875 C 88.347656 -36.523438 90.734375 -43.972656 90.734375 -53.515625 L 90.734375 -67.453125 L 88.359375 -67.953125 C 86.285156 -66.296875 83.566406 -64.90625 80.203125 -63.78125 C 76.847656 -62.664062 72.019531 -61.566406 65.71875 -60.484375 C 58.25 -59.242188 52.875 -57.109375 49.59375 -54.078125 C 46.320312 -51.046875 44.6875 -46.753906 44.6875 -41.203125 C 44.6875 -35.304688 46.425781 -30.820312 49.90625 -27.75 C 53.394531 -24.6875 58.25 -23.15625 64.46875 -23.15625 Z M 64.46875 -23.15625 "/></g></g></g><g fill="#2b2d42" fill-opacity="1"><g transform="translate(590.786611, 266.426256)"><g><path d="M 64.21875 2.609375 C 54.84375 2.609375 46.253906 1.507812 38.453125 -0.6875 C 30.660156 -2.882812 24.003906 -5.910156 18.484375 -9.765625 C 12.960938 -13.628906 8.875 -18.050781 6.21875 -23.03125 L 25.390625 -43.6875 L 28 -43.6875 C 32.5625 -37.539062 37.953125 -32.929688 44.171875 -29.859375 C 50.398438 -26.796875 57.164062 -25.265625 64.46875 -25.265625 C 71.1875 -25.265625 76.242188 -26.46875 79.640625 -28.875 C 83.046875 -31.28125 84.75 -34.722656 84.75 -39.203125 C 84.75 -42.691406 83.523438 -45.617188 81.078125 -47.984375 C 78.628906 -50.347656 74.671875 -52.191406 69.203125 -53.515625 L 51.03125 -57.875 C 37.414062 -61.113281 27.476562 -66.070312 21.21875 -72.75 C 14.957031 -79.425781 11.828125 -87.910156 11.828125 -98.203125 C 11.828125 -106.742188 14.003906 -114.164062 18.359375 -120.46875 C 22.710938 -126.78125 28.847656 -131.59375 36.765625 -134.90625 C 44.691406 -138.226562 53.925781 -139.890625 64.46875 -139.890625 C 76.832031 -139.890625 87.078125 -138.101562 95.203125 -134.53125 C 103.335938 -130.96875 109.6875 -126.203125 114.25 -120.234375 L 95.828125 -100.3125 L 93.34375 -100.3125 C 89.53125 -104.625 85.238281 -107.773438 80.46875 -109.765625 C 75.695312 -111.765625 70.363281 -112.765625 64.46875 -112.765625 C 50.863281 -112.765625 44.0625 -108.53125 44.0625 -100.0625 C 44.0625 -96.5 45.328125 -93.59375 47.859375 -91.34375 C 50.390625 -89.101562 54.847656 -87.28125 61.234375 -85.875 L 78.15625 -82.140625 C 92.09375 -79.148438 102.273438 -74.359375 108.703125 -67.765625 C 115.140625 -61.171875 118.359375 -52.316406 118.359375 -41.203125 C 118.359375 -32.484375 116.203125 -24.804688 111.890625 -18.171875 C 107.578125 -11.535156 101.351562 -6.410156 93.21875 -2.796875 C 85.082031 0.804688 75.414062 2.609375 64.21875 2.609375 Z M 64.21875 2.609375 "/></g></g></g><g fill="#2b2d42" fill-opacity="1"><g transform="translate(711.756621, 266.426256)"><g><path d="M 19.78125 0 L 19.78125 -192.40625 L 54.265625 -192.40625 L 54.265625 -85.625 L 57.625 -85.625 L 97.328125 -137.28125 L 132.296875 -137.28125 L 132.296875 -134.421875 L 85.625 -74.171875 L 137.53125 -3.109375 L 137.53125 0 L 101.1875 0 L 57.625 -57.875 L 54.265625 -57.875 L 54.265625 0 Z M 19.78125 0 "/></g></g></g><g fill="#2b2d42" fill-opacity="1"><g transform="translate(843.928204, 266.426256)"><g><path d="M 59.609375 -181.953125 L 59.609375 -30.125 L 141.390625 -30.125 L 141.390625 0 L 23.640625 0 L 23.640625 -181.953125 Z M 59.609375 -181.953125 "/></g></g></g><g fill="#2b2d42" fill-opacity="1"><g transform="translate(985.683327, 266.426256)"><g><path d="M 36.96875 -153.703125 C 30.738281 -153.703125 25.675781 -155.585938 21.78125 -159.359375 C 17.882812 -163.140625 15.9375 -168.019531 15.9375 -174 C 15.9375 -179.882812 17.882812 -184.710938 21.78125 -188.484375 C 25.675781 -192.265625 30.738281 -194.15625 36.96875 -194.15625 C 41.113281 -194.15625 44.800781 -193.28125 48.03125 -191.53125 C 51.269531 -189.789062 53.78125 -187.40625 55.5625 -184.375 C 57.351562 -181.351562 58.25 -177.894531 58.25 -174 C 58.25 -170.09375 57.351562 -166.601562 55.5625 -163.53125 C 53.78125 -160.46875 51.269531 -158.0625 48.03125 -156.3125 C 44.800781 -154.570312 41.113281 -153.703125 36.96875 -153.703125 Z M 19.78125 0 L 19.78125 -137.28125 L 54.265625 -137.28125 L 54.265625 0 Z M 19.78125 0 "/></g></g></g><g fill="#2b2d42" fill-opacity="1"><g transform="translate(1054.00596, 266.426256)"><g><path d="M 64.21875 2.609375 C 54.84375 2.609375 46.253906 1.507812 38.453125 -0.6875 C 30.660156 -2.882812 24.003906 -5.910156 18.484375 -9.765625 C 12.960938 -13.628906 8.875 -18.050781 6.21875 -23.03125 L 25.390625 -43.6875 L 28 -43.6875 C 32.5625 -37.539062 37.953125 -32.929688 44.171875 -29.859375 C 50.398438 -26.796875 57.164062 -25.265625 64.46875 -25.265625 C 71.1875 -25.265625 76.242188 -26.46875 79.640625 -28.875 C 83.046875 -31.28125 84.75 -34.722656 84.75 -39.203125 C 84.75 -42.691406 83.523438 -45.617188 81.078125 -47.984375 C 78.628906 -50.347656 74.671875 -52.191406 69.203125 -53.515625 L 51.03125 -57.875 C 37.414062 -61.113281 27.476562 -66.070312 21.21875 -72.75 C 14.957031 -79.425781 11.828125 -87.910156 11.828125 -98.203125 C 11.828125 -106.742188 14.003906 -114.164062 18.359375 -120.46875 C 22.710938 -126.78125 28.847656 -131.59375 36.765625 -134.90625 C 44.691406 -138.226562 53.925781 -139.890625 64.46875 -139.890625 C 76.832031 -139.890625 87.078125 -138.101562 95.203125 -134.53125 C 103.335938 -130.96875 109.6875 -126.203125 114.25 -120.234375 L 95.828125 -100.3125 L 93.34375 -100.3125 C 89.53125 -104.625 85.238281 -107.773438 80.46875 -109.765625 C 75.695312 -111.765625 70.363281 -112.765625 64.46875 -112.765625 C 50.863281 -112.765625 44.0625 -108.53125 44.0625 -100.0625 C 44.0625 -96.5 45.328125 -93.59375 47.859375 -91.34375 C 50.390625 -89.101562 54.847656 -87.28125 61.234375 -85.875 L 78.15625 -82.140625 C 92.09375 -79.148438 102.273438 -74.359375 108.703125 -67.765625 C 115.140625 -61.171875 118.359375 -52.316406 118.359375 -41.203125 C 118.359375 -32.484375 116.203125 -24.804688 111.890625 -18.171875 C 107.578125 -11.535156 101.351562 -6.410156 93.21875 -2.796875 C 85.082031 0.804688 75.414062 2.609375 64.21875 2.609375 Z M 64.21875 2.609375 "/></g></g></g><g fill="#2b2d42" fill-opacity="1"><g transform="translate(1174.975969, 266.426256)"><g><path d="M 94.71875 -32.734375 L 103.671875 -7.21875 C 99.941406 -4.144531 95.253906 -1.738281 89.609375 0 C 83.960938 1.738281 77.570312 2.609375 70.4375 2.609375 C 55.59375 2.609375 44.3125 -1.429688 36.59375 -9.515625 C 28.875 -17.609375 25.015625 -29.375 25.015625 -44.8125 L 25.015625 -110.015625 L 4.109375 -110.015625 L 4.109375 -137.40625 L 25.015625 -137.40625 L 25.015625 -164.15625 L 59.484375 -169.765625 L 59.484375 -137.40625 L 98.453125 -137.40625 L 98.453125 -110.015625 L 59.484375 -110.015625 L 59.484375 -47.296875 C 59.484375 -40.492188 60.894531 -35.535156 63.71875 -32.421875 C 66.539062 -29.304688 70.648438 -27.75 76.046875 -27.75 C 82.179688 -27.75 87.53125 -29.410156 92.09375 -32.734375 Z M 94.71875 -32.734375 "/></g></g></g><g clip-path="url(#cecc2ff614)"><path fill="#2b2d42" d="M 306.40625 266.980469 L 1495.679688 266.980469 L 1495.679688 298.53125 L 306.40625 298.53125 Z M 306.40625 266.980469 " fill-opacity="1" fill-rule="nonzero"/></g><g clip-path="url(#8ba8711fdf)"><g clip-path="url(#1b6a7dd615)"><path fill="#2b2d42" d="M 119.324219 209.457031 L 273.664062 209.457031 L 273.664062 240.617188 L 119.324219 240.617188 Z M 119.324219 209.457031 " fill-opacity="1" fill-rule="nonzero"/></g></g><g clip-path="url(#72fbfc00c7)"><g clip-path="url(#284255367b)"><path fill="#2b2d42" d="M 69.328125 209.457031 L 100.488281 209.457031 L 100.488281 240.617188 L 69.328125 240.617188 Z M 69.328125 209.457031 " fill-opacity="1" fill-rule="nonzero"/></g></g><g fill="#2b2d42" fill-opacity="1"><g transform="translate(1292.777036, 266.936586)"><g><path d="M 12.40625 0.390625 C 10.851562 0.390625 9.484375 0.078125 8.296875 -0.546875 C 7.109375 -1.179688 6.195312 -2.054688 5.5625 -3.171875 C 4.9375 -4.285156 4.625 -5.546875 4.625 -6.953125 C 4.625 -8.359375 4.9375 -9.617188 5.5625 -10.734375 C 6.195312 -11.847656 7.109375 -12.726562 8.296875 -13.375 C 9.484375 -14.019531 10.851562 -14.34375 12.40625 -14.34375 C 13.988281 -14.34375 15.375 -14.023438 16.5625 -13.390625 C 17.75 -12.753906 18.65625 -11.878906 19.28125 -10.765625 C 19.914062 -9.660156 20.234375 -8.398438 20.234375 -6.984375 C 20.234375 -4.847656 19.519531 -3.082031 18.09375 -1.6875 C 16.675781 -0.300781 14.78125 0.390625 12.40625 0.390625 Z M 12.40625 0.390625 "/></g></g></g><g fill="#2b2d42" fill-opacity="1"><g transform="translate(1315.643798, 266.936586)"><g><path d="M 28.28125 0.921875 C 23.582031 0.921875 19.429688 -0.0507812 15.828125 -2 C 12.222656 -3.945312 9.410156 -6.8125 7.390625 -10.59375 C 5.367188 -14.375 4.359375 -18.921875 4.359375 -24.234375 C 4.359375 -29.566406 5.367188 -34.125 7.390625 -37.90625 C 9.410156 -41.6875 12.207031 -44.550781 15.78125 -46.5 C 19.363281 -48.445312 23.457031 -49.421875 28.0625 -49.421875 C 38.289062 -49.421875 44.84375 -45.710938 47.71875 -38.296875 L 39.359375 -32.328125 L 38.4375 -32.328125 C 37.4375 -34.609375 36.132812 -36.304688 34.53125 -37.421875 C 32.9375 -38.535156 30.78125 -39.09375 28.0625 -39.09375 C 24.539062 -39.09375 21.796875 -37.875 19.828125 -35.4375 C 17.867188 -33.007812 16.890625 -29.273438 16.890625 -24.234375 C 16.890625 -19.242188 17.882812 -15.523438 19.875 -13.078125 C 21.875 -10.628906 24.675781 -9.40625 28.28125 -9.40625 C 30.914062 -9.40625 33.148438 -10.113281 34.984375 -11.53125 C 36.816406 -12.957031 38.128906 -15.003906 38.921875 -17.671875 L 39.84375 -17.765625 L 48.5 -13.015625 C 47.269531 -8.910156 44.988281 -5.5625 41.65625 -2.96875 C 38.332031 -0.375 33.875 0.921875 28.28125 0.921875 Z M 28.28125 0.921875 "/></g></g></g><g fill="#2b2d42" fill-opacity="1"><g transform="translate(1363.666713, 266.936586)"><g><path d="M 28.1875 0.921875 C 23.4375 0.921875 19.265625 -0.0507812 15.671875 -2 C 12.085938 -3.945312 9.304688 -6.804688 7.328125 -10.578125 C 5.347656 -14.347656 4.359375 -18.898438 4.359375 -24.234375 C 4.359375 -29.566406 5.347656 -34.125 7.328125 -37.90625 C 9.304688 -41.6875 12.085938 -44.550781 15.671875 -46.5 C 19.265625 -48.445312 23.4375 -49.421875 28.1875 -49.421875 C 32.9375 -49.421875 37.109375 -48.445312 40.703125 -46.5 C 44.296875 -44.550781 47.085938 -41.6875 49.078125 -37.90625 C 51.066406 -34.125 52.0625 -29.566406 52.0625 -24.234375 C 52.0625 -18.898438 51.066406 -14.347656 49.078125 -10.578125 C 47.085938 -6.804688 44.296875 -3.945312 40.703125 -2 C 37.109375 -0.0507812 32.9375 0.921875 28.1875 0.921875 Z M 28.1875 -9.40625 C 35.71875 -9.40625 39.484375 -14.347656 39.484375 -24.234375 C 39.484375 -29.359375 38.515625 -33.113281 36.578125 -35.5 C 34.648438 -37.894531 31.851562 -39.09375 28.1875 -39.09375 C 20.65625 -39.09375 16.890625 -34.140625 16.890625 -24.234375 C 16.890625 -14.347656 20.65625 -9.40625 28.1875 -9.40625 Z M 28.1875 -9.40625 "/></g></g></g><g fill="#2b2d42" fill-opacity="1"><g transform="translate(1418.066624, 266.936586)"><g><path d="M 6.984375 0 L 6.984375 -48.5 L 18.6875 -48.5 L 18.6875 -42 L 19.609375 -41.828125 C 21.191406 -44.429688 23.046875 -46.347656 25.171875 -47.578125 C 27.296875 -48.804688 30.015625 -49.421875 33.328125 -49.421875 C 36.992188 -49.421875 39.941406 -48.695312 42.171875 -47.25 C 44.398438 -45.800781 46.023438 -43.679688 47.046875 -40.890625 L 47.984375 -40.890625 C 49.472656 -43.796875 51.394531 -45.941406 53.75 -47.328125 C 56.113281 -48.722656 59.054688 -49.421875 62.578125 -49.421875 C 72.628906 -49.421875 77.65625 -43.820312 77.65625 -32.625 L 77.65625 0 L 65.484375 0 L 65.484375 -31.09375 C 65.484375 -33.9375 64.925781 -35.988281 63.8125 -37.25 C 62.695312 -38.507812 60.90625 -39.140625 58.4375 -39.140625 C 51.757812 -39.140625 48.421875 -34.664062 48.421875 -25.71875 L 48.421875 0 L 36.234375 0 L 36.234375 -31.09375 C 36.234375 -33.9375 35.664062 -35.988281 34.53125 -37.25 C 33.40625 -38.507812 31.613281 -39.140625 29.15625 -39.140625 C 26.019531 -39.140625 23.570312 -38.085938 21.8125 -35.984375 C 20.050781 -33.890625 19.171875 -30.554688 19.171875 -25.984375 L 19.171875 0 Z M 6.984375 0 "/></g></g></g><g clip-path="url(#94a6b9e7b3)"><g clip-path="url(#2f2c902ca2)"><path fill="#2b2d42" d="M 84.910156 147.136719 L 273.574219 147.136719 L 273.574219 178.296875 L 84.910156 178.296875 Z M 84.910156 147.136719 " fill-opacity="1" fill-rule="nonzero"/></g></g><g clip-path="url(#5c4a07560a)"><g clip-path="url(#146cee9242)"><path fill="#2b2d42" d="M 34.679688 147.136719 L 65.839844 147.136719 L 65.839844 178.296875 L 34.679688 178.296875 Z M 34.679688 147.136719 " fill-opacity="1" fill-rule="nonzero"/></g></g><g clip-path="url(#daa9d8b306)"><g clip-path="url(#1b0fff0307)"><path fill="#2b2d42" d="M 50.261719 84.910156 L 273.617188 84.910156 L 273.617188 116.070312 L 50.261719 116.070312 Z M 50.261719 84.910156 " fill-opacity="1" fill-rule="nonzero"/></g></g><g clip-path="url(#70c193cf3a)"><g clip-path="url(#1b438c0c64)"><path fill="#2b2d42" d="M 0 84.910156 L 31.160156 84.910156 L 31.160156 116.070312 L 0 116.070312 Z M 0 84.910156 " fill-opacity="1" fill-rule="nonzero"/></g></g></svg>